{"title":"The Sunset Limited 2011 HDTVRip x264 Feel-Free","uid":6181654,"size":1849551331,"categoryP":"video","categoryS":"hd___movies","magnet":"?xt=urn:btih:371d6a29cf31be3322424ab5a84e19d7f1eb9079&amp;dn=The+Sunset+Limited+2011+HDTVRip+x264+Feel-Free&amp;tr=udp%3A%2F%2Ftracker.openbittorrent.com%3A80&amp;tr=udp%3A%2F%2Fopen.demonii.com%3A1337&amp;tr=udp%3A%2F%2Ftracker.coppersurfer.tk%3A6969&amp;tr=udp%3A%2F%2Fexodus.desync.com%3A6969","seeders":0,"leechers":1,"uploader":"neon","files":-1,"time":1297975354,"description":"Genre:Drama\nLanguage:English\n &lt;a href=&quot; http://www.imdb.com/title/tt1510938/&quot; rel=&quot;nofollow&quot; target=&quot;_NEW&quot;&gt; http://www.imdb.com/title/tt1510938/&lt;/a&gt;\nSource:HDTV CtrlHD\n\nA God-fearing ex-con (Samuel L. Jackson) saves a despondent college \nprofessor (Tommy Lee Jones) from throwing himself in front of a speeding \nsubway train, and struggles to comprehend the suicidal man's unwavering despair \nduring a series of intense philosophical debates.\n\n\nFormat : MPEG-4\nFormat profile : Base Media\nCodec ID : isom\nFile size : 1.72 GiB\nDuration : 1h 30mn\nOverall bit rate : 2 711 Kbps\n\n\nVideo\nFormat settings, CABAC : Yes\nFormat settings, ReFrames : 3 frames\nCodec ID : avc1\nCodec ID/Info : Advanced Video Coding\nDuration : 1h 30mn\nBit rate mode : Variable\nBit rate : 2 322 Kbps\nMaximum bit rate : 7 246 Kbps\nWidth : 720 pixels\nHeight : 400 pixels\nDisplay aspect ratio : 16:9\nFrame rate mode : Constant\nFrame rate : 23.976 fps\nColor space : YUV\nChroma subsampling : 4:2:0\nBit depth : 8 bits\nScan type : Progressive\nBits/(Pixel*Frame) : 0.336\nStream size : 1.44 GiB (84%)\nWriting library : x264\n\nAudio\nID : 2\nFormat : AAC\nFormat/Info : Advanced Audio Codec\nFormat version : Version 4\nFormat profile : LC\nFormat settings, SBR : No\nCodec ID : 40\nDuration : 1h 30mn\nBit rate mode : Variable\nBit rate : 443 Kbps\nMaximum bit rate : 519 Kbps\nChannel(s) : 6 channels\nChannel positions : Front: L C R, Side: L R, LFE\nSampling rate : 48.0 KHz\nStream size : 288 MiB (16%)\n &lt;a href=&quot;\nhttp://www.postimg.com/29000/28364.jpg&quot; rel=&quot;nofollow&quot; target=&quot;_NEW&quot;&gt;\nhttp://www.postimg.com/29000/28364.jpg&lt;/a&gt; &lt;a href=&quot;\nhttp://www.postimg.com/29000/28365.jpg&quot; rel=&quot;nofollow&quot; target=&quot;_NEW&quot;&gt;\nhttp://www.postimg.com/29000/28365.jpg&lt;/a&gt; &lt;a href=&quot;\nhttp://www.postimg.com/29000/28367.jpg&quot; rel=&quot;nofollow&quot; target=&quot;_NEW&quot;&gt;\nhttp://www.postimg.com/29000/28367.jpg&lt;/a&gt; &lt;a href=&quot;\nhttp://www.postimg.com/29000/28369.jpg&quot; rel=&quot;nofollow&quot; target=&quot;_NEW&quot;&gt;\nhttp://www.postimg.com/29000/28369.jpg&lt;/a&gt;","torrent":{"xt":"urn:btih:371d6a29cf31be3322424ab5a84e19d7f1eb9079","amp;dn":"The+Sunset+Limited+2011+HDTVRip+x264+Feel-Free","amp;tr":["udp%3A%2F%2Ftracker.openbittorrent.com%3A80","udp%3A%2F%2Fopen.demonii.com%3A1337","udp%3A%2F%2Ftracker.coppersurfer.tk%3A6969","udp%3A%2F%2Fexodus.desync.com%3A6969"],"infoHash":"371d6a29cf31be3322424ab5a84e19d7f1eb9079","infoHashBuffer":{"type":"Buffer","data":[55,29,106,41,207,49,190,51,34,66,74,181,168,78,25,215,241,235,144,121]},"announce":[],"urlList":[]}}